<?xml version="1.0" encoding="UTF-8"?>
<svg id="Camada_2" data-name="Camada 2" xmlns="http://www.w3.org/2000/svg" viewBox="0 0 983.14 288.02">
  <defs>
    <style>
      .cls-1 {
        fill: #165b9a;
      }

      .cls-2 {
        fill: #11181c;
      }

      .cls-3 {
        fill: #3757a4;
      }

      .cls-4 {
        fill: #4568b0;
      }

      .cls-5 {
        fill: #294294;
      }

      .cls-6 {
        fill: #6288c5;
      }
    </style>
  </defs>
  <g id="Cores">
    <g>
      <g>
        <polyline class="cls-6" points="249.43 0 166.29 144.01 83.14 0"/>
        <polyline class="cls-3" points="0 144.01 166.29 144.01 83.14 288.02"/>
        <polyline class="cls-4" points="83.14 0 166.29 144.01 0 144.01"/>
        <polyline class="cls-5" points="83.14 288.02 166.29 144.01 249.43 288.02"/>
        <line class="cls-1" x1="249.43" y1="288.02" x2="83.14" y2="288.02"/>
      </g>
      <g>
        <polygon class="cls-2" points="271.17 97.4 317.84 97.4 317.84 215.84 353.92 215.84 353.92 97.4 400.85 97.4 400.85 72.28 271.17 72.28 271.17 97.4"/>
        <polygon class="cls-2" points="457.61 154.19 518.16 154.19 518.16 129.28 457.61 129.28 457.61 97.4 521.7 97.4 521.7 72.28 421.79 72.28 421.79 215.84 522.2 215.84 522.2 190.72 457.61 190.72 457.61 154.19"/>
        <polygon class="cls-2" points="543.12 97.4 589.8 97.4 589.8 215.84 625.88 215.84 625.88 97.4 672.8 97.4 672.8 72.28 543.12 72.28 543.12 97.4"/>
        <path class="cls-2" d="M823.91,215.77l-43.64-59.16c1.85-.5,3.67-1.03,5.41-1.64,9.67-3.38,17.24-8.3,22.71-14.78,5.46-6.47,8.2-14.28,8.2-23.43s-2.65-16.85-7.95-23.54c-5.3-6.68-12.66-11.86-22.08-15.52-9.42-3.66-20.35-5.49-32.8-5.49l-59.54-.05v25.2l35.77-.03h21.92c8.41,0,15.14.92,20.52,4.86,5.38,3.94,8.07,9.36,8.07,16.26,0,5.35-1.68,9.71-5.05,13.09-3.37,3.38-7.86,5.81-13.5,7.28-5.64,1.48-11.98,2.22-19.05,2.22h-10.6l-38.1-.06v74.8h30.02v-49.67h25.16l33.87,49.67h40.62Z"/>
        <polyline class="cls-2" points="883.9 154.09 905.18 87.16 905.68 87.16 926.69 154.09 893.44 154.09 886.98 178.16 906.44 178.16 934.25 178.16 946.05 215.74 983.14 215.74 933.69 72.17 877.93 72.17 829.24 215.74 864.31 215.74 876.25 178.16"/>
      </g>
    </g>
  </g>
</svg>